<?xml version="1.0" standalone="no"?><!DOCTYPE svg PUBLIC "-//W3C//DTD SVG 1.1//EN" "http://www.w3.org/Graphics/SVG/1.1/DTD/svg11.dtd"><svg t="1586526467224" class="icon" viewBox="0 0 1024 1024" version="1.1" xmlns="http://www.w3.org/2000/svg" p-id="9357" xmlns:xlink="http://www.w3.org/1999/xlink" width="365" height="365"><defs><style type="text/css"></style></defs><path d="M490.429834 810.463565l-238.452575 39.720764-7.423644-42.024653L131.407037 166.910402 607.928203 87.51154l249.332053-41.555342 89.723701 508.263646a21.332311 21.332311 0 0 0 41.981988-7.423645L895.615752 17.712218a21.246982 21.246982 0 0 0-24.489493-17.321837l-267.635176 44.584531L65.788848 0.177058a20.351025 20.351025 0 0 0-15.785911 5.162419 21.118988 21.118988 0 0 0-7.29565 14.889954l-42.664622 767.963201a21.332311 21.332311 0 0 0 18.900427 22.398927l186.401735 20.735007 8.319602 47.101743a21.332311 21.332311 0 0 0 24.489493 17.321836l259.27291-43.219262a21.332311 21.332311 0 1 0-6.996998-42.067318z m298.865679-255.731746c-129.359135 0-234.655423 105.253623-234.655423 234.655423s105.296288 234.655423 234.655423 234.655423 234.655423-105.253623 234.655423-234.655423-105.296288-234.655423-234.655423-234.655423z m85.329245 255.987734H810.627824v63.996934a21.332311 21.332311 0 0 1-42.664622 0v-63.996934h-63.996934a21.332311 21.332311 0 0 1 0-42.664622H767.963202v-63.996934a21.332311 21.332311 0 0 1 42.664622 0v63.996934h63.996934a21.332311 21.332311 0 0 1 0 42.664622z" p-id="9358" fill="#e6e6e6"></path></svg>