<?xml version="1.0" standalone="no"?><!DOCTYPE svg PUBLIC "-//W3C//DTD SVG 1.1//EN" "http://www.w3.org/Graphics/SVG/1.1/DTD/svg11.dtd"><svg t="1585009701172" class="icon" viewBox="0 0 1024 1024" version="1.1" xmlns="http://www.w3.org/2000/svg" p-id="2956" xmlns:xlink="http://www.w3.org/1999/xlink" width="200" height="200"><defs><style type="text/css"></style></defs><path d="M544 480h112a16 16 0 0 1 16 16v16a16 16 0 0 1-16 16h-112v112a16 16 0 0 1-16 16h-16a16 16 0 0 1-16-16v-112h-112a16 16 0 0 1-16-16v-16a16 16 0 0 1 16-16h112v-112a16 16 0 0 1 16-16h16a16 16 0 0 1 16 16v112z m-32 320c159.056 0 288-128.944 288-288s-128.944-288-288-288-288 128.944-288 288 128.944 288 288 288z m0 48c-185.568 0-336-150.432-336-336s150.432-336 336-336 336 150.432 336 336-150.432 336-336 336z" p-id="2957" fill="#1693d6"></path></svg>