<?xml version="1.0" standalone="no"?><!DOCTYPE svg PUBLIC "-//W3C//DTD SVG 1.1//EN" "http://www.w3.org/Graphics/SVG/1.1/DTD/svg11.dtd"><svg t="1586526272793" class="icon" viewBox="0 0 1024 1024" version="1.1" xmlns="http://www.w3.org/2000/svg" p-id="4559" xmlns:xlink="http://www.w3.org/1999/xlink" width="365" height="365"><defs><style type="text/css"></style></defs><path d="M98.626 396.702l362.342 161.34c17.322 8.07 28.291 11.214 39.125 11.214 10.874 0 22.383-3.14 41.071-11.195l362.549-161.434c11.644-5.379 19.216-19.407 19.772-36.612 0.592-18.428-7.272-34.81-20.062-41.752L541.189 128.834c-14.402-8.455-26.197-12.229-38.263-12.229-11.932 0-24.847 3.755-41.918 12.205L98.084 318.661c-12.914 8.37-20.777 25.029-20.043 42.436 0.669 15.791 8.306 29.075 20.586 35.602z m30.429-39.101l372.058-198.214 372.019 198.214-372.044 155.28-372.035-155.28zM501.099 855.05L74.406 668.771l0.487 7.583c0.72 11.13 4.532 48.23 23.729 58.512l362.347 161.346c17.314 8.086 28.282 11.229 39.121 11.229 10.864 0 22.379-3.143 41.078-11.215l362.543-161.422c19.638-9.077 23.24-53.794 23.587-58.859l0.497-7.322-426.693 186.428z m-40.135-127.943c17.292 8.084 28.266 11.233 39.125 11.233 10.894 0 22.403-3.143 41.081-11.218l362.539-161.429c19.641-9.065 23.242-53.788 23.587-58.858l0.498-7.327L501.1 688.192S90.862 508.465 81.1 503.26l-6.691-3.597 0.487 7.577c0.715 11.136 4.523 48.256 23.735 58.528l362.336 161.339z" p-id="4560" fill="#e6e6e6"></path></svg>