<?xml version="1.0" standalone="no"?><!DOCTYPE svg PUBLIC "-//W3C//DTD SVG 1.1//EN" "http://www.w3.org/Graphics/SVG/1.1/DTD/svg11.dtd"><svg t="1586526220912" class="icon" viewBox="0 0 1024 1024" version="1.1" xmlns="http://www.w3.org/2000/svg" p-id="3703" xmlns:xlink="http://www.w3.org/1999/xlink" width="365" height="365"><defs><style type="text/css"></style></defs><path d="M896 425.770667a25.6 25.6 0 0 0-25.6 25.6V704a166.4 166.4 0 0 1-166.4 166.4h-384a166.4 166.4 0 0 1-166.4-166.4v-384a166.4 166.4 0 0 1 166.4-166.4h252.629333a25.6 25.6 0 1 0 0-51.2H320a217.813333 217.813333 0 0 0-217.6 217.6v384a217.813333 217.813333 0 0 0 217.6 217.6h384a217.813333 217.813333 0 0 0 217.6-217.6v-252.629333a25.6 25.6 0 0 0-25.6-25.6z" fill="#e6e6e6" p-id="3704"></path><path d="M354.133333 409.898667a25.6 25.6 0 0 0-36.224 36.181333l150.016 150.016a25.6 25.6 0 0 0 36.224 0L866.133333 234.069333a25.6 25.6 0 1 0-36.224-36.181333l-343.893333 343.893333z" fill="#e6e6e6" p-id="3705"></path></svg>