<?xml version="1.0" standalone="no"?><!DOCTYPE svg PUBLIC "-//W3C//DTD SVG 1.1//EN" "http://www.w3.org/Graphics/SVG/1.1/DTD/svg11.dtd"><svg t="1586526397431" class="icon" viewBox="0 0 1035 1024" version="1.1" xmlns="http://www.w3.org/2000/svg" p-id="6450" xmlns:xlink="http://www.w3.org/1999/xlink" width="368.9208984375" height="365"><defs><style type="text/css"></style></defs><path d="M923.952524 1017.062401a319.599002 319.599002 0 1 0-627.461464 0z" fill="#e6e6e6" p-id="6451"></path><path d="M916.545464 1023.843513H154.55718a39.121797 39.121797 0 0 1 0-78.243595h761.988284a39.226122 39.226122 0 0 0 39.121797-39.121797l1.773521-622.245224a39.121797 39.121797 0 0 1 39.121798-39.017472 39.121797 39.121797 0 0 1 39.017472 39.226122l-1.773522 622.140899a117.521879 117.521879 0 0 1-117.261066 117.261067z" fill="#e6e6e6" p-id="6452"></path><path d="M233.218073 814.15068a39.121797 39.121797 0 0 1-39.121797-39.121797V117.365391A117.521879 117.521879 0 0 1 311.461668 0h675.71168a39.121797 39.121797 0 0 1 0 78.243594H311.461668a39.226122 39.226122 0 0 0-39.121797 39.121797v657.663492a39.121797 39.121797 0 0 1-39.121798 39.121797z" fill="#e6e6e6" p-id="6453"></path><path d="M136.196017 1023.843513A136.300341 136.300341 0 0 1 0 887.699659v-359.920534A77.148184 77.148184 0 0 1 76.991697 450.683103h118.460802a77.148184 77.148184 0 0 1 76.991696 77.096022v359.920534a136.300341 136.300341 0 0 1-136.248178 136.143854z m57.900259-495.855739l-117.104579 1.147573 1.251897 358.564312a57.952422 57.952422 0 0 0 115.852682 0z" fill="#e6e6e6" p-id="6454"></path><path d="M834.337527 323.459019H405.614793a39.121797 39.121797 0 0 1 0-78.243594h428.722734a39.121797 39.121797 0 0 1 0 78.243594z" fill="#e6e6e6" p-id="6455"></path><path d="M680.562783 793.077072H405.458306a39.121797 39.121797 0 0 1 0-78.243594h275.104477a39.121797 39.121797 0 0 1 0 78.243594z" fill="#e6e6e6" p-id="6456"></path><path d="M822.392339 561.736845h-416.777546a39.121797 39.121797 0 0 1 0-78.243595h416.777546a39.121797 39.121797 0 0 1 0 78.243595z" fill="#e6e6e6" p-id="6457"></path></svg>