<?xml version="1.0" standalone="no"?><!DOCTYPE svg PUBLIC "-//W3C//DTD SVG 1.1//EN" "http://www.w3.org/Graphics/SVG/1.1/DTD/svg11.dtd"><svg t="1585834105704" class="icon" viewBox="0 0 1024 1024" version="1.1" xmlns="http://www.w3.org/2000/svg" p-id="6448" xmlns:xlink="http://www.w3.org/1999/xlink" width="200" height="200"><defs><style type="text/css"></style></defs><path d="M512 0C229.23 0 0 229.23 0 512s229.23 512 512 512 512-229.23 512-512S794.77 0 512 0z m169.71 568.57a80 80 0 0 1-113.14 113.14L512 625.14l-56.57 56.57a80 80 0 1 1-113.14-113.14L398.86 512l-56.57-56.57a80 80 0 1 1 113.14-113.14L512 398.86l56.57-56.57a80 80 0 1 1 113.14 113.14L625.14 512z" p-id="6449" fill="#1afa29"></path></svg>