<?xml version="1.0" standalone="no"?><!DOCTYPE svg PUBLIC "-//W3C//DTD SVG 1.1//EN" "http://www.w3.org/Graphics/SVG/1.1/DTD/svg11.dtd"><svg t="1585961689307" class="icon" viewBox="0 0 1024 1024" version="1.1" xmlns="http://www.w3.org/2000/svg" p-id="2461" xmlns:xlink="http://www.w3.org/1999/xlink" width="200" height="200"><defs><style type="text/css"></style></defs><path d="M13.524271 512.036685a498.504637 498.504637 0 1 1 498.437016 498.437015A498.437016 498.437016 0 0 1 13.524271 512.036685z" fill="#FFF100" p-id="2462"></path><path d="M40.572814 593.182312a556.253275 556.253275 0 0 1 636.114096-550.099732A498.437016 498.437016 0 0 0 56.260968 723.623908 555.441819 555.441819 0 0 1 40.572814 593.182312z" fill="#FFFFFF" p-id="2463"></path><path d="M978.88675 430.891057a555.847547 555.847547 0 0 1-555.847546 555.847547 568.763226 568.763226 0 0 1-80.131307-5.680194 498.572258 498.572258 0 0 0 620.425942-680.541327 556.253275 556.253275 0 0 1 15.552911 130.373974z" fill="#F8B62D" p-id="2464"></path><path d="M511.961287 1023.997971a511.961287 511.961287 0 1 1 459.28425-738.425208A13.524271 13.524271 0 0 1 946.698985 297.609365a484.912744 484.912744 0 1 0 36.718396 327.354984 13.524271 13.524271 0 1 1 26.304708 6.288786 510.000267 510.000267 0 0 1-497.760802 392.744836z" fill="#231815" p-id="2465"></path><path d="M1010.398302 525.560956a13.524271 13.524271 0 0 1-13.524271-13.524271A486.400414 486.400414 0 0 0 989.300439 426.089941a13.524271 13.524271 0 0 1 26.642815-4.733495 514.328034 514.328034 0 0 1 7.97932 90.680239 13.524271 13.524271 0 0 1-13.524272 13.524271z" fill="#231815" p-id="2466"></path><path d="M284.618288 631.591242L204.081253 551.054207a23.93796 23.93796 0 0 1 0-33.810678l35.230726-35.230727a23.870339 23.870339 0 0 1 33.810678 0l140.584799 140.517178a23.93796 23.93796 0 0 0 33.810678 0l323.973917-323.973917a24.005581 24.005581 0 0 1 33.810678 0l41.789998 41.85762a23.802717 23.802717 0 0 1 0 33.810678l-392.9477 393.082943a24.005581 24.005581 0 0 1-33.810678 0l-79.387472-79.387472" fill="#FFFFFF" p-id="2467"></path><path d="M437.239688 787.796575a37.191746 37.191746 0 0 1-26.507571-10.95466L331.344645 697.522064a13.524271 13.524271 0 1 1 19.136843-19.136843L429.868961 757.434586a10.616553 10.616553 0 0 0 14.673834 0l393.082943-393.015322a10.48131 10.48131 0 0 0 3.042961-7.370728 10.413689 10.413689 0 0 0-3.042961-7.370727l-41.85762-41.85762a10.616553 10.616553 0 0 0-14.673834 0L457.120367 632.064592a37.326989 37.326989 0 0 1-52.947522 0L263.723289 491.547414a10.346067 10.346067 0 0 0-14.673835 0l-35.365969 35.230726a10.48131 10.48131 0 0 0 0 14.741456L294.152899 622.191874a13.524271 13.524271 0 0 1-19.136844 19.069222L194.546641 560.65644a37.529853 37.529853 0 0 1 0-53.015144L229.912611 472.41057a37.462231 37.462231 0 0 1 52.947521 0l140.381936 140.517178a10.616553 10.616553 0 0 0 14.741455 0l323.973917-323.973917a37.462231 37.462231 0 0 1 52.947522 0l41.857619 41.857619a37.462231 37.462231 0 0 1 0 52.947522l-393.082942 393.082943a36.92126 36.92126 0 0 1-26.439951 10.95466z" fill="#231815" p-id="2468"></path></svg>