<?xml version="1.0" standalone="no"?><!DOCTYPE svg PUBLIC "-//W3C//DTD SVG 1.1//EN" "http://www.w3.org/Graphics/SVG/1.1/DTD/svg11.dtd"><svg t="1586527489676" class="icon" viewBox="0 0 1024 1024" version="1.1" xmlns="http://www.w3.org/2000/svg" p-id="17548" width="450" height="450" xmlns:xlink="http://www.w3.org/1999/xlink"><defs><style type="text/css"></style></defs><path d="M432.401067 86.8352h261.952853L548.37248 388.25984a30.35136 30.35136 0 0 0-2.757973 13.079893 28.699307 28.699307 0 0 0 28.535466 27.538774h0.16384c0.464213 0 0.832853 0.24576 1.26976 0.218453 0.259413 0 0.49152-0.16384 0.73728-0.16384H758.442667L439.446187 820.0192l52.92032-231.99744c3.577173-14.609067 5.3248-22.77376 5.270186-24.507733-0.6144-15.93344-10.73152-30.624427-26.66496-30.010027-0.28672 0-0.518827 0.177493-0.8192 0.177493l-233.30816-2.321066L432.41472 86.8352zM169.970347 604.801707h242.701653L326.724267 978.45248l0.314026 0.068267c-0.57344 2.717013-1.39264 5.36576-1.297066 8.219306a31.86688 31.86688 0 0 0 33.041066 30.63808 31.402667 31.402667 0 0 0 22.923947-11.537066l504.477013-600.282454c0.436907-0.45056 0.791893-0.955733 1.201494-1.4336l0.218453-0.314026a31.675733 31.675733 0 0 0 7.563947-21.558614 31.648427 31.648427 0 0 0-31.429974-30.35136l-0.259413-0.027306c-0.464213 0-0.846507-0.232107-1.324373-0.191147-0.314027 0-0.505173 0.150187-0.791894 0.150187l-201.878186-2.08896L797.313707 48.878933l-0.136534-0.054613a31.402667 31.402667 0 0 0 3.167574-14.363307A31.839573 31.839573 0 0 0 767.276373 3.8912c-0.32768 0-0.57344 0.191147-0.887466 0.191147L398.1312 3.945813c-0.477867 0-0.86016-0.218453-1.324373-0.218453a31.62112 31.62112 0 0 0-27.825494 19.41504l-0.095573 0.191147c-0.218453 0.57344-0.505173 1.10592-0.723627 1.706666L138.717867 560.756053c-1.911467 4.314453-2.853547 8.983893-2.730667 13.694294a31.839573 31.839573 0 0 0 33.041067 30.583466c0.354987-0.04096 0.600747-0.191147 0.914773-0.232106z" p-id="17549" fill="#e6e6e6"></path></svg>