<?xml version="1.0" standalone="no"?><!DOCTYPE svg PUBLIC "-//W3C//DTD SVG 1.1//EN" "http://www.w3.org/Graphics/SVG/1.1/DTD/svg11.dtd"><svg t="1586525772760" class="icon" viewBox="0 0 1024 1024" version="1.1" xmlns="http://www.w3.org/2000/svg" p-id="6793" xmlns:xlink="http://www.w3.org/1999/xlink" width="350" height="350"><defs><style type="text/css"></style></defs><path d="M106.666667 213.333333h810.666666a21.333333 21.333333 0 1 0 0-42.666666H106.666667a21.333333 21.333333 0 0 0 0 42.666666zM640 810.666667H106.666667a21.333333 21.333333 0 1 0 0 42.666666h533.333333a21.333333 21.333333 0 1 0 0-42.666666zM490.666667 384H106.666667a21.333333 21.333333 0 1 0 0 42.666667h384a21.333333 21.333333 0 1 0 0-42.666667zM106.666667 640h362.666666a21.333333 21.333333 0 1 0 0-42.666667H106.666667a21.333333 21.333333 0 1 0 0 42.666667zM861.141333 692.010667c-0.256-0.448-0.682667-0.682667-0.981333-1.109334a170.56 170.56 0 0 0 44.949333-221.376 170.666667 170.666667 0 0 0-295.594666 170.666667c43.541333 75.456 135.978667 104.917333 214.186666 71.744 0.213333 0.448 0.213333 0.96 0.448 1.386667l74.666667 129.322666a21.333333 21.333333 0 1 0 36.949333-21.333333l-74.624-129.301333zM821.333333 665.728a128 128 0 1 1-127.957333-221.76A128 128 0 0 1 821.333333 665.728z" fill="" p-id="6794"></path></svg>