<?xml version="1.0" standalone="no"?><!DOCTYPE svg PUBLIC "-//W3C//DTD SVG 1.1//EN" "http://www.w3.org/Graphics/SVG/1.1/DTD/svg11.dtd"><svg t="1586526536652" class="icon" viewBox="0 0 1024 1024" version="1.1" xmlns="http://www.w3.org/2000/svg" p-id="10953" xmlns:xlink="http://www.w3.org/1999/xlink" width="365" height="365"><defs><style type="text/css"></style></defs><path d="M847.37735 74.902944 176.026062 74.902944c-61.712527 0-111.893416 50.375318-111.893416 112.293529l0 645.685745c0 61.920258 50.180889 112.295576 111.893416 112.295576l671.351288 0c61.71048 0 111.892393-50.375318 111.892393-112.295576L959.269743 187.196473C959.269743 125.279285 909.08783 74.902944 847.37735 74.902944zM903.323547 832.882218c0 30.966269-25.106818 56.149834-55.946196 56.149834L176.026062 889.032052c-30.842449 0-55.946196-25.183566-55.946196-56.149834L120.079866 187.196473c0-30.963199 25.104771-56.146764 55.946196-56.146764l671.351288 0c30.840402 0 55.946196 25.183566 55.946196 56.146764L903.323547 832.882218zM791.431154 271.41662 315.89053 271.41662c-15.461133 0-27.973098 12.573363-27.973098 28.073382 0 15.502066 12.511965 28.073382 27.973098 28.073382l475.541647 0c15.461133 0 27.974122-12.571317 27.974122-28.073382C819.405275 283.989983 806.892287 271.41662 791.431154 271.41662zM791.431154 411.782507 315.89053 411.782507c-15.461133 0-27.973098 12.571317-27.973098 28.073382 0 15.502066 12.511965 28.073382 27.973098 28.073382l475.541647 0c15.461133 0 27.974122-12.571317 27.974122-28.073382C819.405275 424.353824 806.892287 411.782507 791.431154 411.782507zM791.431154 552.149419 315.89053 552.149419c-15.461133 0-27.973098 12.573363-27.973098 28.073382 0 15.502066 12.511965 28.073382 27.973098 28.073382l475.541647 0c15.461133 0 27.974122-12.571317 27.974122-28.073382C819.405275 564.722782 806.892287 552.149419 791.431154 552.149419zM791.431154 692.518377 315.89053 692.518377c-15.461133 0-27.973098 12.568247-27.973098 28.070312s12.511965 28.073382 27.973098 28.073382l475.541647 0c15.461133 0 27.974122-12.571317 27.974122-28.073382S806.892287 692.518377 791.431154 692.518377zM203.998137 327.563384l55.946196 0 0-56.146764-55.946196 0L203.998137 327.563384zM203.998137 467.929272l55.946196 0 0-56.146764-55.946196 0L203.998137 467.929272zM203.998137 608.296183l55.946196 0 0-56.146764-55.946196 0L203.998137 608.296183zM203.998137 748.662071l55.946196 0 0-56.143695-55.946196 0L203.998137 748.662071z" p-id="10954" fill="#e6e6e6"></path></svg>