<?xml version="1.0" standalone="no"?><!DOCTYPE svg PUBLIC "-//W3C//DTD SVG 1.1//EN" "http://www.w3.org/Graphics/SVG/1.1/DTD/svg11.dtd"><svg t="1586525660044" class="icon" viewBox="0 0 1024 1024" version="1.1" xmlns="http://www.w3.org/2000/svg" p-id="2936" xmlns:xlink="http://www.w3.org/1999/xlink" width="350" height="350"><defs><style type="text/css"></style></defs><path d="M576.5 948.9H186.8c-74.6 0-135.3-60.7-135.3-135.3v-580c0-74.6 60.7-135.3 135.3-135.3h494.4c74.6 0 135.3 60.7 135.3 135.3v351c0 17.3-14 31.3-31.3 31.3S754 602 754 584.7v-351c0-40.1-32.6-72.8-72.8-72.8H186.8c-40.1 0-72.8 32.6-72.8 72.8v580c0 40.1 32.6 72.8 72.8 72.8h389.7c17.3 0 31.3 14 31.3 31.3s-14 31.1-31.3 31.1z" fill="#2c2c2c" p-id="2937"></path><path d="M219.5 155.1h-1c-17.3-0.5-30.8-15-30.2-32.2l1.4-45.3c0-42.3 35.2-77.6 78.5-77.6h331.6c43.3 0 78.6 35.2 78.6 78.6v40.1c0 17.3-14 31.3-31.3 31.3s-31.3-14-31.3-31.3V78.6c0-8.9-7.2-16.1-16.1-16.1H268.2c-8.9 0-16.1 7.2-16.1 16.1l-1.5 46.3c-0.4 16.8-14.3 30.2-31.1 30.2zM741.3 1024c-127.5 0-231.2-103.7-231.2-231.2s103.7-231.2 231.2-231.2 231.2 103.7 231.2 231.2S868.8 1024 741.3 1024z m0-399.9c-93 0-168.7 75.7-168.7 168.7s75.7 168.7 168.7 168.7S910 885.8 910 792.8s-75.7-168.7-168.7-168.7z" fill="#2c2c2c" p-id="2938"></path><path d="M729.1 887.7c-13.4 0-26.2-5.3-35.9-14.9l-49.5-49.5c-12.2-12.2-12.2-32 0-44.2 12.2-12.2 32-12.2 44.2 0l39 39 63.2-105c8.9-14.8 28.1-19.6 42.9-10.7 14.8 8.9 19.6 28.1 10.7 42.9L772.8 863c-8.1 13.5-21.7 22.4-37.4 24.3-2.1 0.3-4.2 0.4-6.3 0.4zM574.6 414.4H293.5c-17.3 0-31.3-14-31.3-31.3s14-31.3 31.3-31.3h281.1c17.3 0 31.3 14 31.3 31.3s-14.1 31.3-31.3 31.3zM479.2 582.2H293.5c-17.3 0-31.3-14-31.3-31.3s14-31.3 31.3-31.3h185.7c17.3 0 31.3 14 31.3 31.3s-14 31.3-31.3 31.3z" fill="#2c2c2c" p-id="2939"></path></svg>